<svg width="201" height="45" viewBox="0 0 201 45" fill="none" xmlns="http://www.w3.org/2000/svg">
<rect width="201" height="45" rx="6" fill="#FEE500"/>
<g clip-path="url(#clip0_122_51)">
<path fill-rule="evenodd" clip-rule="evenodd" d="M23 14.1C18.0292 14.1 14 17.2129 14 21.0523C14 23.44 15.5584 25.5449 17.9315 26.7969L16.933 30.4445C16.8448 30.7668 17.2134 31.0237 17.4965 30.8369L21.8733 27.9482C22.2427 27.9838 22.6181 28.0046 23 28.0046C27.9705 28.0046 31.9999 24.8918 31.9999 21.0523C31.9999 17.2129 27.9705 14.1 23 14.1Z" fill="black"/>
</g>
<path d="M67.2149 16.215C67.1999 20.79 65.1149 23.85 61.2899 25.86L60.2999 24.75C62.2349 23.865 63.8549 22.44 64.7699 20.595L60.8549 21.015L60.6149 19.68L65.2799 19.335C65.4449 18.735 65.5649 18.12 65.6099 17.46H61.2899V16.215H67.2149ZM70.8299 14.82V20.04H72.8999V21.315H70.8299V28.185H69.2849V14.82H70.8299ZM80.1935 16.215C80.1785 20.79 78.0935 23.85 74.2685 25.86L73.2785 24.75C75.2135 23.865 76.8335 22.44 77.7485 20.595L73.8335 21.015L73.5935 19.68L78.2585 19.335C78.4235 18.735 78.5435 18.12 78.5885 17.46H74.2685V16.215H80.1935ZM83.8085 14.82V20.04H85.8785V21.315H83.8085V28.185H82.2635V14.82H83.8085ZM98.482 26.475H86.407V25.245H91.657V22.965C89.182 22.725 87.607 21.315 87.607 19.32C87.607 17.115 89.542 15.645 92.437 15.645C95.377 15.645 97.297 17.115 97.297 19.32C97.297 21.33 95.692 22.74 93.187 22.98V25.245H98.482V26.475ZM95.752 19.335C95.752 17.91 94.447 16.905 92.437 16.905C90.472 16.905 89.152 17.91 89.152 19.335C89.152 20.745 90.472 21.705 92.437 21.705C94.432 21.705 95.752 20.745 95.752 19.335ZM111.996 27.555H110.541V22.95H108.711V21.735H110.541V19.59H109.041V18.39H110.541V15.09H111.996V27.555ZM114.591 28.185H113.121V14.82H114.591V28.185ZM108.921 16.425C108.891 20.43 107.271 23.37 104.076 25.485L103.056 24.42C105.711 22.845 107.226 20.37 107.406 17.685H103.851V16.425H108.921ZM127.419 25.56C127.419 27.135 125.754 28.185 122.859 28.185C119.979 28.185 118.329 27.135 118.329 25.56C118.329 23.955 119.979 22.905 122.859 22.905C125.754 22.905 127.419 23.955 127.419 25.56ZM116.769 16.95V15.675H123.804V16.95H121.134V16.995C121.134 18.99 122.619 20.46 124.179 20.94L123.324 22.155C122.229 21.72 120.909 20.67 120.339 19.425C119.949 20.73 118.509 22.035 117.174 22.545L116.244 21.345C118.119 20.655 119.544 19.05 119.544 17.07V16.95H116.769ZM123.594 19.335V18.06H125.769V14.82H127.314V22.86H125.769V19.335H123.594ZM122.859 24.165C121.014 24.165 119.919 24.675 119.919 25.56C119.919 26.43 121.014 26.94 122.859 26.94C124.749 26.94 125.844 26.43 125.844 25.56C125.844 24.675 124.749 24.165 122.859 24.165ZM140.588 21.27L140.618 20.025H142.688V17.925H140.618L140.588 16.68H142.688V14.82H144.218V24.51H142.688V21.27H140.588ZM144.488 27.795H135.428V23.625H136.958V26.565H144.488V27.795ZM140.318 19.11C140.318 21 138.938 22.38 136.883 22.38C134.843 22.38 133.448 21.015 133.448 19.11C133.448 17.22 134.828 15.825 136.883 15.825C138.938 15.825 140.318 17.205 140.318 19.11ZM138.773 19.11C138.773 17.925 138.053 17.115 136.883 17.115C135.743 17.115 134.993 17.97 134.993 19.11C134.993 20.205 135.743 21.075 136.883 21.075C138.053 21.075 138.773 20.205 138.773 19.11ZM156.837 19.755H152.982V21.15H158.277V22.395H146.202V21.15H151.452V19.755H147.792V15.18H156.732V16.44H149.337V18.51H156.837V19.755ZM156.882 25.755C156.882 27.255 155.187 28.2 152.247 28.2C149.292 28.2 147.612 27.255 147.612 25.755C147.612 24.285 149.292 23.325 152.232 23.325C155.187 23.325 156.882 24.285 156.882 25.755ZM155.292 25.77C155.292 25.005 154.122 24.555 152.232 24.555C150.357 24.555 149.187 25.005 149.187 25.77C149.187 26.535 150.357 26.955 152.232 26.955C154.122 26.955 155.292 26.535 155.292 25.77Z" fill="black" fill-opacity="0.85"/>
<defs>
<clipPath id="clip0_122_51">
<rect width="17.9999" height="18" fill="white" transform="translate(14 13.5)"/>
</clipPath>
</defs>
</svg>
